<?xml version="1.0" standalone="no"?><!DOCTYPE svg PUBLIC "-//W3C//DTD SVG 1.1//EN" "http://www.w3.org/Graphics/SVG/1.1/DTD/svg11.dtd"><svg t="1699713240229" class="icon" viewBox="0 0 1024 1024" version="1.1" xmlns="http://www.w3.org/2000/svg" p-id="168475" xmlns:xlink="http://www.w3.org/1999/xlink" width="32" height="32"><path d="M834.645333 516.181333l65.322667 113.152a149.333333 149.333333 0 0 1-129.28 224H682.666667v85.333334l-213.333334-149.333334 213.333334-149.333333v85.333333h87.978666a21.248 21.248 0 0 0 20.096-28.501333l-1.621333-3.498667-65.322667-113.152 110.848-64zM330.112 400.384l22.613333 259.413333-73.813333-42.666666-44.032 76.202666a21.248 21.248 0 0 0 14.634667 31.658667l3.84 0.341333H384v128H253.354667a149.333333 149.333333 0 0 1-129.322667-224l43.989333-76.202666-73.898666-42.666667 235.946666-110.08z m256.554667-273.706667c22.698667 13.098667 41.557333 31.957333 54.656 54.656l43.946666 76.202667 73.941334-42.666667-22.613334 259.413334-236.032-110.08 73.898667-42.666667-43.989333-76.202667a21.248 21.248 0 0 0-34.730667-3.114666l-2.218667 3.114666-65.28 113.152-110.890666-64 65.28-113.152a149.333333 149.333333 0 0 1 204.032-54.656z" p-id="168476" fill="#dbdbdb"></path></svg>